<svg width="385" height="301" viewBox="0 0 385 301" fill="none" xmlns="http://www.w3.org/2000/svg">
<circle cx="3.5" cy="3.5" r="3.5" fill="#E7E7E7"/>
<circle cx="57.5" cy="3.5" r="3.5" fill="#E7E7E7"/>
<circle cx="111.5" cy="3.5" r="3.5" fill="#E7E7E7"/>
<circle cx="165.5" cy="3.5" r="3.5" fill="#E7E7E7"/>
<circle cx="219.5" cy="3.5" r="3.5" fill="#E7E7E7"/>
<circle cx="273.5" cy="3.5" r="3.5" fill="#E7E7E7"/>
<circle cx="327.5" cy="3.5" r="3.5" fill="#E7E7E7"/>
<circle cx="381.5" cy="3.5" r="3.5" fill="#E7E7E7"/>
<circle cx="3.5" cy="45.5" r="3.5" fill="#E7E7E7"/>
<circle cx="57.5" cy="45.5" r="3.5" fill="#E7E7E7"/>
<circle cx="111.5" cy="45.5" r="3.5" fill="#E7E7E7"/>
<circle cx="165.5" cy="45.5" r="3.5" fill="#E7E7E7"/>
<circle cx="219.5" cy="45.5" r="3.5" fill="#E7E7E7"/>
<circle cx="273.5" cy="45.5" r="3.5" fill="#E7E7E7"/>
<circle cx="327.5" cy="45.5" r="3.5" fill="#E7E7E7"/>
<circle cx="381.5" cy="45.5" r="3.5" fill="#E7E7E7"/>
<circle cx="3.5" cy="87.5" r="3.5" fill="#E7E7E7"/>
<circle cx="57.5" cy="87.5" r="3.5" fill="#E7E7E7"/>
<circle cx="111.5" cy="87.5" r="3.5" fill="#E7E7E7"/>
<circle cx="165.5" cy="87.5" r="3.5" fill="#E7E7E7"/>
<circle cx="219.5" cy="87.5" r="3.5" fill="#E7E7E7"/>
<circle cx="273.5" cy="87.5" r="3.5" fill="#E7E7E7"/>
<circle cx="327.5" cy="87.5" r="3.5" fill="#E7E7E7"/>
<circle cx="381.5" cy="87.5" r="3.5" fill="#E7E7E7"/>
<circle cx="3.5" cy="129.5" r="3.5" fill="#E7E7E7"/>
<circle cx="57.5" cy="129.5" r="3.5" fill="#E7E7E7"/>
<circle cx="111.5" cy="129.5" r="3.5" fill="#E7E7E7"/>
<circle cx="165.5" cy="129.5" r="3.5" fill="#E7E7E7"/>
<circle cx="219.5" cy="129.5" r="3.5" fill="#E7E7E7"/>
<circle cx="273.5" cy="129.5" r="3.5" fill="#E7E7E7"/>
<circle cx="327.5" cy="129.5" r="3.5" fill="#E7E7E7"/>
<circle cx="381.5" cy="129.5" r="3.5" fill="#E7E7E7"/>
<circle cx="3.5" cy="171.5" r="3.5" fill="#E7E7E7"/>
<circle cx="57.5" cy="171.5" r="3.5" fill="#E7E7E7"/>
<circle cx="111.5" cy="171.5" r="3.5" fill="#E7E7E7"/>
<circle cx="165.5" cy="171.5" r="3.5" fill="#E7E7E7"/>
<circle cx="219.5" cy="171.5" r="3.5" fill="#E7E7E7"/>
<circle cx="273.5" cy="171.5" r="3.5" fill="#E7E7E7"/>
<circle cx="327.5" cy="171.5" r="3.5" fill="#E7E7E7"/>
<circle cx="381.5" cy="171.5" r="3.5" fill="#E7E7E7"/>
<circle cx="3.5" cy="213.5" r="3.5" fill="#E7E7E7"/>
<circle cx="57.5" cy="213.5" r="3.5" fill="#E7E7E7"/>
<circle cx="111.5" cy="213.5" r="3.5" fill="#E7E7E7"/>
<circle cx="165.5" cy="213.5" r="3.5" fill="#E7E7E7"/>
<circle cx="219.5" cy="213.5" r="3.5" fill="#E7E7E7"/>
<circle cx="273.5" cy="213.5" r="3.5" fill="#E7E7E7"/>
<circle cx="327.5" cy="213.5" r="3.5" fill="#E7E7E7"/>
<circle cx="381.5" cy="213.5" r="3.5" fill="#E7E7E7"/>
<circle cx="3.5" cy="255.5" r="3.5" fill="#E7E7E7"/>
<circle cx="57.5" cy="255.5" r="3.5" fill="#E7E7E7"/>
<circle cx="111.5" cy="255.5" r="3.5" fill="#E7E7E7"/>
<circle cx="165.5" cy="255.5" r="3.5" fill="#E7E7E7"/>
<circle cx="219.5" cy="255.5" r="3.5" fill="#E7E7E7"/>
<circle cx="273.5" cy="255.5" r="3.5" fill="#E7E7E7"/>
<circle cx="327.5" cy="255.5" r="3.5" fill="#E7E7E7"/>
<circle cx="381.5" cy="255.5" r="3.5" fill="#E7E7E7"/>
<circle cx="3.5" cy="297.5" r="3.5" fill="#E7E7E7"/>
<circle cx="57.5" cy="297.5" r="3.5" fill="#E7E7E7"/>
<circle cx="111.5" cy="297.5" r="3.5" fill="#E7E7E7"/>
<circle cx="165.5" cy="297.5" r="3.5" fill="#E7E7E7"/>
<circle cx="219.5" cy="297.5" r="3.5" fill="#E7E7E7"/>
<circle cx="273.5" cy="297.5" r="3.5" fill="#E7E7E7"/>
<circle cx="327.5" cy="297.5" r="3.5" fill="#E7E7E7"/>
<circle cx="381.5" cy="297.5" r="3.5" fill="#E7E7E7"/>
</svg>
