<svg width="41" height="41" viewBox="0 0 41 41" fill="none" xmlns="http://www.w3.org/2000/svg">
<g clip-path="url(#clip0_2_1420)">
<path d="M21.5139 19.4871C21.2008 19.174 20.6939 19.174 20.3808 19.4871C20.0685 19.7994 20.0685 20.3063 20.3808 20.6194C20.6939 20.9317 21.2008 20.9317 21.5139 20.6194C21.8262 20.3063 21.8262 19.7994 21.5139 19.4871Z" fill="#0073C6"/>
<path d="M31.7055 9.29467C30.1408 7.73002 27.6078 7.72994 26.043 9.29467C24.4823 10.8553 24.4823 13.3954 26.0432 14.9573C27.6044 16.5175 30.1445 16.5182 31.7055 14.9571C33.2701 13.3926 33.2704 10.8595 31.7055 9.29467ZM30.5731 13.8246C29.6367 14.761 28.1125 14.761 27.1757 13.8248C26.2392 12.8877 26.2391 11.3635 27.1755 10.4271C28.1143 9.48838 29.6342 9.48822 30.5731 10.4271C31.5118 11.3658 31.512 12.8858 30.5731 13.8246Z" fill="#0073C6"/>
<path d="M40.7653 0.234495C40.608 0.0773021 40.3934 -0.00790083 40.1703 0.000507359C39.9892 0.00699368 35.6782 0.180282 30.5537 1.99157C26.4473 3.44146 23.0245 5.51732 20.3804 8.1615C19.7879 8.75399 19.2113 9.38228 18.6597 10.035C16.0453 8.49606 13.9503 8.97861 12.6259 9.68738C9.57642 11.3194 7.6889 15.7506 7.6889 18.9201C7.68914 19.2439 7.88429 19.5359 8.18347 19.6598C8.28252 19.7009 8.38662 19.7208 8.48976 19.7208C8.69821 19.7208 8.90297 19.6394 9.05616 19.4863C10.6644 17.8781 12.648 17.9787 13.296 18.0639L13.5764 18.3443C13.0245 19.6576 12.5799 20.9635 12.2538 22.2336C12.1361 22.6932 12.1758 23.1796 12.3508 23.6246C11.5798 23.9799 10.836 24.5016 10.1883 25.1492C8.12701 27.2106 7.70844 32.2342 7.69163 32.4471C7.67321 32.6807 7.75793 32.9106 7.92361 33.0763C8.0744 33.227 8.27836 33.3109 8.48976 33.3109C8.51074 33.3109 8.5318 33.3101 8.55287 33.3084C8.76571 33.2916 13.7895 32.8731 15.8508 30.8118C16.4982 30.1644 17.0198 29.4206 17.3751 28.6498C17.8462 28.835 18.3309 28.8578 18.7669 28.7461C20.0364 28.4201 21.3422 27.9757 22.6556 27.4237L22.9361 27.7041C23.0212 28.3522 23.1218 30.3358 21.5136 31.9439C21.2847 32.1729 21.2162 32.5173 21.3401 32.8165C21.464 33.1157 21.756 33.3108 22.0799 33.3108C25.2494 33.3108 29.6805 31.4233 31.3125 28.3738C32.0212 27.0496 32.5038 24.9546 30.9648 22.3401C31.6172 21.7887 32.2456 21.2121 32.8384 20.6194C35.4825 17.9752 37.5583 14.5524 39.0082 10.4464C40.8196 5.32153 40.9928 1.01045 40.9993 0.829475C41.0073 0.607258 40.9225 0.391768 40.7653 0.234495ZM9.47929 17.1977C9.97673 14.7903 11.4216 12.1486 13.3819 11.0994C14.6919 10.3984 16.1238 10.4671 17.6462 11.3005C16.3492 13.0063 15.2216 14.8441 14.2817 16.7848C14.2698 16.7774 14.1257 16.5962 13.8579 16.5358C13.7478 16.5109 11.629 16.0552 9.47929 17.1977ZM14.7183 29.6792C13.6172 30.7803 11.0343 31.361 9.40177 31.5982C9.63896 29.9655 10.2198 27.3827 11.3208 26.2817C11.9374 25.6651 12.6523 25.1976 13.3709 24.9343L16.0657 27.6291C15.8024 28.3477 15.335 29.0626 14.7183 29.6792ZM18.3691 27.1947C18.1373 27.254 17.8689 27.1669 17.6693 26.9676C16.6334 25.9317 16.2281 25.5264 16.1009 25.3993C15.8677 25.1661 15.2959 24.5943 14.0328 23.3311C13.8331 23.131 13.746 22.8627 13.8052 22.6313C14.0617 21.6325 14.3971 20.6076 14.805 19.5729L21.4271 26.195C20.3922 26.603 19.3676 26.9383 18.3691 27.1947ZM29.9006 27.6181C28.8514 29.5784 26.2098 31.0233 23.8025 31.5206C24.5701 30.0763 24.7393 28.2376 24.4588 27.1227C24.3937 26.8637 24.2248 26.7335 24.2153 26.7182C26.1558 25.7783 27.9936 24.6508 29.6995 23.3537C30.5329 24.8763 30.6015 26.3084 29.9006 27.6181ZM31.7061 19.4869C30.9845 20.2084 30.2075 20.9055 29.3966 21.5587C27.4473 23.1282 25.3019 24.4577 23.0129 25.516L15.484 17.9872C16.5423 15.6981 17.8718 13.5527 19.4411 11.6036C20.0949 10.7922 20.7919 10.0151 21.5132 9.29396C23.8855 6.92157 26.9472 5.03349 30.6157 3.67441L37.3256 10.3843C35.9667 14.0528 34.0786 17.1145 31.7061 19.4869ZM37.9018 8.69537L32.3046 3.09824C35.3541 2.15108 38.007 1.79642 39.3312 1.66893C39.2036 2.99334 38.8488 5.64625 37.9018 8.69537Z" fill="#0073C6"/>
<path d="M19.2484 33.0761C18.9355 32.7634 18.4285 32.7636 18.1158 33.0763L15.8512 35.3417C15.5386 35.6545 15.5387 36.1615 15.8514 36.4742C16.1643 36.7868 16.6713 36.7868 16.9839 36.474L19.2485 34.2086C19.5612 33.8958 19.5611 33.3887 19.2484 33.0761Z" fill="#0073C6"/>
<path d="M7.92408 21.7516C7.61146 21.4389 7.10448 21.4389 6.79162 21.7515L4.52621 24.0161C4.21343 24.3287 4.21335 24.8358 4.52597 25.1485C4.83852 25.4612 5.34549 25.4615 5.65844 25.1487L7.92384 22.8841C8.23663 22.5715 8.23671 22.0644 7.92408 21.7516Z" fill="#0073C6"/>
<path d="M13.5863 34.2093C13.2738 33.8966 12.7667 33.8966 12.4539 34.2093L7.0294 39.6329C6.71661 39.9456 6.71661 40.4527 7.02932 40.7654C7.34186 41.0781 7.849 41.0783 8.16178 40.7655L13.5863 35.3418C13.899 35.0291 13.899 34.522 13.5863 34.2093Z" fill="#0073C6"/>
<path d="M7.18003 34.2093C6.86741 33.8966 6.36027 33.8966 6.04757 34.2093L0.623087 39.6329C0.310303 39.9456 0.310303 40.4527 0.623007 40.7654C0.935551 41.0781 1.44269 41.0783 1.75547 40.7655L7.17995 35.3418C7.49274 35.0291 7.49274 34.522 7.18003 34.2093Z" fill="#0073C6"/>
<path d="M6.79078 27.4137C6.47816 27.1011 5.97102 27.1011 5.65832 27.4138L0.23464 32.8383C-0.078064 33.1511 -0.078064 33.658 0.23472 33.9708C0.547425 34.2835 1.05448 34.2835 1.36718 33.9707L6.79086 28.5463C7.10357 28.2335 7.10357 27.7265 6.79078 27.4137Z" fill="#0073C6"/>
<path d="M24.9109 16.0892C24.5981 15.7765 24.0912 15.7765 23.7783 16.0892L22.646 17.2215C22.3333 17.5342 22.3333 18.0413 22.646 18.354C22.9588 18.6668 23.4658 18.6668 23.7786 18.354L24.9109 17.2217C25.2236 16.909 25.2236 16.402 24.9109 16.0892Z" fill="#0073C6"/>
</g>
<defs>
<clipPath id="clip0_2_1420">
<rect width="41" height="41" fill="white"/>
</clipPath>
</defs>
</svg>
